<?xml version="1.0" standalone="no"?>
<!DOCTYPE svg PUBLIC "-//W3C//DTD SVG 20010904//EN"
 "http://www.w3.org/TR/2001/REC-SVG-20010904/DTD/svg10.dtd">
<svg version="1.0" xmlns="http://www.w3.org/2000/svg"
 width="163.000000pt" height="142.000000pt" viewBox="0 0 163.000000 142.000000"
 preserveAspectRatio="xMidYMid meet">

<g transform="translate(0.000000,142.000000) scale(0.100000,-0.100000)"
fill="#000000" stroke="none">
<path d="M0 710 l0 -710 815 0 815 0 0 710 0 710 -815 0 -815 0 0 -710z m605
221 c47 -22 69 -44 89 -93 18 -42 14 -48 -35 -48 -29 0 -40 6 -55 28 -27 42
-45 51 -97 52 -40 0 -53 -5 -77 -28 -87 -87 -47 -271 62 -288 63 -11 128 36
128 91 0 11 -14 15 -56 15 l-55 0 3 33 3 32 98 3 97 3 0 -57 c0 -125 -75 -199
-200 -199 -80 0 -131 23 -171 78 -38 53 -52 108 -46 182 7 93 49 161 122 199
41 22 140 20 190 -3z m275 -87 l0 -105 91 105 91 106 49 0 c27 0 49 -3 49 -7
0 -5 -39 -52 -85 -106 -50 -57 -82 -104 -78 -110 3 -7 44 -65 90 -130 l84
-118 -57 3 -58 3 -64 93 -64 93 -24 -22 c-21 -20 -24 -32 -24 -96 l0 -73 -45
0 -45 0 0 235 0 235 45 0 45 0 0 -106z m416 -272 c39 -26 33 -87 -11 -98 -54
-13 -88 59 -43 90 25 18 37 19 54 8z"/>
</g>
</svg>
