<?xml version="1.0" standalone="no"?>
<!DOCTYPE svg PUBLIC "-//W3C//DTD SVG 20010904//EN"
 "http://www.w3.org/TR/2001/REC-SVG-20010904/DTD/svg10.dtd">
<svg version="1.0" xmlns="http://www.w3.org/2000/svg"
 width="208.000000pt" height="167.000000pt" viewBox="0 0 208.000000 167.000000"
 preserveAspectRatio="xMidYMid meet">

<g transform="translate(0.000000,167.000000) scale(0.100000,-0.100000)"
fill="#000000" stroke="none">
<path d="M610 1141 c-76 -24 -137 -79 -171 -156 -17 -39 -22 -69 -22 -135 0
-105 26 -171 87 -228 53 -49 103 -67 186 -66 145 1 240 102 240 256 l0 48
-121 0 -120 0 3 -37 3 -38 68 -3 69 -3 -7 -27 c-16 -65 -67 -104 -139 -104
-114 1 -173 82 -164 227 3 50 11 83 26 106 58 94 203 98 256 8 15 -26 23 -29
68 -29 50 0 50 0 43 28 -14 59 -93 132 -164 152 -41 11 -105 12 -141 1z"/>
<path d="M1030 850 l0 -290 55 0 55 0 0 90 c0 88 1 91 33 125 l32 36 85 -125
85 -125 63 -1 63 0 -48 68 c-26 37 -76 106 -110 154 -35 48 -63 92 -63 98 0 5
44 60 98 122 54 62 101 119 106 126 5 9 -7 12 -52 12 l-60 0 -113 -134 -114
-135 -3 135 -3 134 -54 0 -55 0 0 -290z"/>
<path d="M1610 673 c-63 -22 -45 -113 23 -113 53 0 76 61 37 100 -20 20 -33
23 -60 13z"/>
</g>
</svg>
